<svg width="190" height="116" viewBox="0 0 190 116" fill="none" xmlns="http://www.w3.org/2000/svg">
<mask id="mask0" style="mask-type:alpha" maskUnits="userSpaceOnUse" x="0" y="0" width="190" height="116">
<rect width="190" height="115.762" fill="#C4C4C4"/>
</mask>
<g mask="url(#mask0)">
<path d="M13.8594 26.7947C13.8594 15.749 22.8137 6.79468 33.8594 6.79468H113.62C124.665 6.79468 133.62 15.749 133.62 26.7947V102.461C133.62 113.506 124.665 122.461 113.62 122.461H33.8594C22.8137 122.461 13.8594 113.506 13.8594 102.461V26.7947Z" fill="#FF9D00"/>
<path fill-rule="evenodd" clip-rule="evenodd" d="M99.9645 39.0619H45.9116V33.9984C45.9116 32.9001 46.7634 32.0095 47.8141 32.0095H98.062C99.1127 32.0095 99.9645 32.9001 99.9645 33.9984V39.0619Z" fill="#253368"/>
<path fill-rule="evenodd" clip-rule="evenodd" d="M98.062 87.8156H47.8141C46.7634 87.8156 45.9116 86.9251 45.9116 85.8266V38.469H99.9645V85.8266C99.9645 86.9251 99.1127 87.8156 98.062 87.8156Z" fill="#E4EBF7"/>
<path fill-rule="evenodd" clip-rule="evenodd" d="M50.3044 35.2917C50.3044 35.981 49.7698 36.5399 49.1104 36.5399C48.451 36.5399 47.9165 35.981 47.9165 35.2917C47.9165 34.6023 48.451 34.0435 49.1104 34.0435C49.7698 34.0435 50.3044 34.6023 50.3044 35.2917Z" fill="#FF7946"/>
<path fill-rule="evenodd" clip-rule="evenodd" d="M54.7633 35.2917C54.7633 35.981 54.2288 36.5399 53.5694 36.5399C52.91 36.5399 52.3755 35.981 52.3755 35.2917C52.3755 34.6023 52.91 34.0435 53.5694 34.0435C54.2288 34.0435 54.7633 34.6023 54.7633 35.2917Z" fill="#FAAD14"/>
<path fill-rule="evenodd" clip-rule="evenodd" d="M59.2223 35.2917C59.2223 35.981 58.6878 36.5399 58.0283 36.5399C57.369 36.5399 56.8345 35.981 56.8345 35.2917C56.8345 34.6023 57.369 34.0435 58.0283 34.0435C58.6878 34.0435 59.2223 34.6023 59.2223 35.2917Z" fill="#7CB305"/>
<path fill-rule="evenodd" clip-rule="evenodd" d="M51.7538 81.1032C51.4259 81.1032 51.1602 80.8256 51.1602 80.4831V44.5327C51.1602 44.1903 51.4259 43.9126 51.7538 43.9126H94.713C95.0408 43.9126 95.3066 44.1903 95.3066 44.5327V80.4831C95.3066 80.8256 95.0408 81.1032 94.713 81.1032H51.7538Z" fill="white"/>
<path fill-rule="evenodd" clip-rule="evenodd" d="M80.6228 64.783C78.0448 64.783 75.95 62.5839 75.95 59.8642C75.9411 57.162 78.0292 54.9639 80.614 54.9545C80.617 54.9545 80.6199 54.9545 80.6228 54.9545C83.1994 54.9545 85.2941 57.1535 85.2941 59.8718C85.2897 62.5839 83.1994 64.7814 80.6228 64.783ZM92.2489 58.1535C92.1582 57.6176 91.6674 57.0693 91.1547 56.9515L90.7725 56.8596C89.8442 56.5653 89.0584 55.9119 88.5752 55.0326C88.0872 54.1444 87.9425 53.0946 88.171 52.0984L88.2911 51.7218C88.4449 51.1995 88.2456 50.4783 87.8457 50.1215C87.8457 50.1215 87.4869 49.803 86.4791 49.1904C85.4669 48.5809 85.0333 48.4109 85.0333 48.4109C84.5412 48.221 83.8527 48.4032 83.4924 48.8044L83.2272 49.1031C82.5268 49.8037 81.5936 50.1929 80.6243 50.1889C79.6496 50.1917 78.7117 49.7992 78.0081 49.0939L77.7533 48.8029C77.3987 48.4018 76.7059 48.2241 76.2122 48.4109C76.2122 48.4109 75.7728 48.5809 74.7621 49.1904C73.75 49.8075 73.394 50.1261 73.394 50.1261C72.9955 50.4798 72.7964 51.1935 72.9501 51.7218L73.06 52.1031C73.2859 53.0979 73.1414 54.1452 72.6557 55.0326C72.1733 55.9192 71.381 56.5756 70.4453 56.8641L70.0777 56.9515C69.5738 57.074 69.0772 57.6145 68.9835 58.1535C68.9835 58.1535 68.8999 58.6375 68.8999 59.8657C68.8999 61.0938 68.9835 61.5762 68.9835 61.5762C69.0743 62.1184 69.565 62.6605 70.0777 62.7784L70.4365 62.8656C71.374 63.1551 72.1679 63.8136 72.6499 64.7033C73.1537 65.6268 73.2754 66.6773 73.0541 67.6375L72.9501 68.0096C72.7964 68.5318 72.9955 69.2531 73.3954 69.6099C73.3954 69.6099 73.7543 69.9284 74.7621 70.541C75.7743 71.1536 76.2093 71.3205 76.2093 71.3205C76.7 71.5104 77.39 71.3281 77.7504 70.9269L78.0022 70.6421C79.4671 69.1765 81.7756 69.1781 83.2389 70.6451L83.4909 70.9315C83.8453 71.3312 84.5383 71.5104 85.0318 71.3236C85.0318 71.3236 85.4713 71.1536 86.4836 70.5441C87.4942 69.9315 87.8487 69.613 87.8487 69.613C88.2486 69.2608 88.4478 68.541 88.294 68.0127L88.1842 67.6267C87.9573 66.6355 88.102 65.5911 88.5884 64.708C89.0732 63.8211 89.8657 63.1631 90.8017 62.8703L91.1621 62.7829C91.666 62.6605 92.1625 62.1199 92.2563 61.5808C92.2563 61.5808 92.3399 61.0969 92.3399 59.8702C92.331 58.6406 92.2489 58.1535 92.2489 58.1535Z" fill="#597EF7"/>
<path fill-rule="evenodd" clip-rule="evenodd" d="M64.4647 70.9982C63.3169 71.6805 61.852 71.2558 61.1934 70.045C60.5352 68.8444 60.9325 67.3132 62.0811 66.625L62.0849 66.6227C63.232 65.9409 64.697 66.3655 65.3551 67.5757C66.0099 68.7842 65.6114 70.3157 64.4647 70.9982ZM68.0353 64.9702C67.8651 64.7556 67.514 64.6413 67.2572 64.7245L67.0647 64.7848C66.5802 64.8995 66.0722 64.8165 65.6442 64.553C65.2119 64.2867 64.8932 63.8576 64.7537 63.3537L64.716 63.1542C64.658 62.8811 64.3947 62.6126 64.1303 62.5596C64.1303 62.5596 63.8934 62.5128 63.2965 62.5068C62.6982 62.5033 62.4641 62.5424 62.4641 62.5424C62.199 62.5881 61.9366 62.8514 61.8734 63.1255L61.8276 63.3285C61.6853 63.8258 61.3642 64.246 60.9317 64.5007C60.4985 64.7599 59.9859 64.8334 59.502 64.7056L59.318 64.6435C59.063 64.5587 58.7116 64.663 58.5371 64.8768C58.5371 64.8768 58.3825 65.0688 58.0802 65.6075C57.779 66.1502 57.6976 66.3862 57.6976 66.3862C57.606 66.6491 57.69 67.0195 57.8865 67.214L58.0276 67.3547C58.3691 67.7378 58.5583 68.2423 58.5571 68.7659C58.5569 69.2882 58.3631 69.7901 58.0164 70.1662L57.8739 70.3024C57.6792 70.4903 57.589 70.8624 57.6778 71.1271C57.6778 71.1271 57.7579 71.3647 58.0552 71.9114C58.3526 72.4581 58.5066 72.6508 58.5066 72.6508C58.6783 72.8681 59.0279 72.9797 59.2847 72.8965L59.4657 72.8404C59.9531 72.7211 60.466 72.8041 60.8959 73.0727C61.3439 73.3504 61.6523 73.786 61.7863 74.272L61.8302 74.4651C61.8881 74.7383 62.1514 75.0067 62.4159 75.0597C62.4159 75.0597 62.6528 75.1066 63.2498 75.1125C63.8487 75.1174 64.0828 75.0766 64.0828 75.0766C64.3473 75.0313 64.6102 74.7675 64.6735 74.4936L64.7167 74.3001C65.014 73.26 66.042 72.6497 67.0488 72.9156L67.2303 72.9764C67.4849 73.0605 67.8367 72.957 68.0112 72.7431C68.0112 72.7431 68.1657 72.5512 68.4687 72.012C68.7703 71.4718 68.851 71.2362 68.851 71.2362C68.9438 70.9736 68.8582 70.6004 68.6618 70.406L68.5194 70.2632C68.1785 69.882 67.99 69.3787 67.9927 68.8568C67.9937 68.3337 68.1873 67.831 68.5331 67.4529L68.6723 67.3188C68.867 67.1308 68.9572 66.7588 68.8685 66.4939C68.8685 66.4939 68.7885 66.2564 68.4915 65.7104C68.1898 65.1653 68.0353 64.9702 68.0353 64.9702Z" fill="#9254DC"/>
<path fill-rule="evenodd" clip-rule="evenodd" d="M62.5365 50.2841H55.9664C55.5372 50.2841 55.186 49.917 55.186 49.4683V49.3999C55.186 48.9511 55.5372 48.584 55.9664 48.584H62.5365C62.9657 48.584 63.3169 48.9511 63.3169 49.3999V49.4683C63.3169 49.917 62.9657 50.2841 62.5365 50.2841Z" fill="#ADC6FF"/>
<path fill-rule="evenodd" clip-rule="evenodd" d="M60.6988 54.2621H56.6335C56.1844 54.2621 55.8203 53.8816 55.8203 53.4121C55.8203 52.9426 56.1844 52.562 56.6335 52.562H60.6988C61.1479 52.562 61.5119 52.9426 61.5119 53.4121C61.5119 53.8816 61.1479 54.2621 60.6988 54.2621Z" fill="#ADC6FF"/>
<path fill-rule="evenodd" clip-rule="evenodd" d="M19.2386 -1.58765C8.62312 -1.58765 0.0175781 7.0179 0.0175781 17.6334C0.0175781 28.2489 8.62312 36.8545 19.2386 36.8545C29.8542 36.8545 38.4597 28.2489 38.4597 17.6334C38.4597 7.0179 29.8542 -1.58765 19.2386 -1.58765Z" fill="#8BBC06"/>
<path fill-rule="evenodd" clip-rule="evenodd" d="M16.1412 24.1629L14.9277 22.9494L26.6869 11.1473C27.089 10.7452 27.741 10.7452 28.1432 11.1473L28.6286 11.6327C29.0307 12.0348 29.0307 12.6868 28.6286 13.0889L17.5974 24.1629C17.1953 24.5651 16.5434 24.5651 16.1412 24.1629Z" fill="white"/>
<path fill-rule="evenodd" clip-rule="evenodd" d="M18.8088 22.9492L17.5953 24.1627C17.1932 24.5649 16.5412 24.5649 16.1391 24.1627L11.307 19.3306C10.9048 18.9285 10.9048 18.2765 11.307 17.8744L11.7924 17.389C12.1945 16.9869 12.8465 16.9869 13.2486 17.389L18.8088 22.9492Z" fill="white"/>
<path fill-rule="evenodd" clip-rule="evenodd" d="M83.1398 126.959C82.8522 122.544 86.1005 118.689 90.4994 118.223L134.931 113.516C140.616 112.914 145.659 117.162 146.031 122.867C146.402 128.571 141.951 133.438 136.237 133.577L91.5696 134.667C87.1471 134.775 83.4269 131.374 83.1398 126.959Z" fill="#ADC6FF"/>
<path fill-rule="evenodd" clip-rule="evenodd" d="M100.987 69.4796C99.2361 70.2539 98.4612 72.1005 99.2171 73.7019L113.596 104.188C114.945 107.048 118.738 108.303 121.871 106.926C124.997 105.552 126.17 102.123 124.431 99.4391L105.868 70.7872C104.888 69.2744 102.748 68.7012 100.987 69.4796Z" fill="#FFC999"/>
<path fill-rule="evenodd" clip-rule="evenodd" d="M117.546 106.809C120.929 107.599 124.34 105.61 125.319 102.276L134.188 72.0818C135.492 67.6409 132.796 63.0168 128.289 61.9646C123.834 60.9251 119.409 63.7978 118.545 68.2893L112.602 99.1931C111.938 102.647 114.12 106.01 117.546 106.809Z" fill="#FFC999"/>
<path fill-rule="evenodd" clip-rule="evenodd" d="M114.265 88.1819L129.232 91.675L134.264 71.7262C135.365 67.36 132.671 62.9391 128.286 61.9156C123.901 60.892 119.528 63.6639 118.583 68.0668L114.265 88.1819Z" fill="#597EF7"/>
<path fill-rule="evenodd" clip-rule="evenodd" d="M136.657 56.1928L135.984 42.9025L147.938 42.1978L150.025 54.748C150.656 58.5384 147.991 62.0872 144.175 62.5391C140.304 62.9982 136.854 60.085 136.657 56.1928Z" fill="#FFC999"/>
<path fill-rule="evenodd" clip-rule="evenodd" d="M132.743 41.8684C132.743 41.8684 130.699 40.2117 130.09 41.569C129.48 42.9263 131.368 47.2827 133.35 47.1599C135.996 46.9961 132.743 41.8684 132.743 41.8684Z" fill="#FFC999"/>
<path fill-rule="evenodd" clip-rule="evenodd" d="M145.6 52.0504C145.6 52.0504 142.126 55.6811 136.632 53.1707C132.678 51.3636 131.23 43.2557 131.211 37.1781C131.201 33.7389 132.542 31.7249 135.726 30.3201C138.909 28.9152 147.868 27.7928 149.137 37.7626C150.551 48.8675 145.6 52.0504 145.6 52.0504Z" fill="#FFC999"/>
<path d="M137.139 38.0578C137.223 38.0254 137.316 38.0588 137.361 38.133L137.376 38.1626L138.166 40.2073C138.172 40.2242 138.176 40.2419 138.178 40.26L138.178 40.2871L137.755 45.8904L139.927 45.6458C140.018 45.6356 140.1 45.6931 140.124 45.778L140.13 45.8073C140.14 45.8978 140.083 45.9803 139.998 46.0042L139.969 46.0099L137.576 46.2796C137.473 46.2913 137.382 46.2146 137.373 46.1144L137.373 46.0838L137.809 40.3002L137.034 38.2947C137.001 38.2108 137.035 38.1177 137.109 38.0724L137.139 38.0578Z" fill="#DD936F"/>
<path d="M144.489 36.5009C144.745 36.417 145.021 36.5568 145.105 36.8132C145.189 37.0697 145.049 37.3456 144.793 37.4295C144.278 37.598 143.409 37.6664 141.995 37.6901L140.788 37.7011L139.879 37.7075C139.609 37.7108 139.388 37.4948 139.385 37.225C139.382 36.9552 139.598 36.7339 139.867 36.7306L141.673 36.7175L142.1 36.7109C143.33 36.6868 144.115 36.6234 144.489 36.5009Z" fill="#253368"/>
<path d="M141.78 47.0211C141.912 46.9696 142.061 47.0345 142.112 47.1661C142.164 47.2977 142.099 47.4462 141.967 47.4977L141.905 47.5206C141.844 47.5426 141.758 47.5715 141.648 47.6055C141.395 47.6839 141.1 47.7621 140.765 47.8348C139.862 48.0317 138.843 48.1538 137.729 48.1652C137.587 48.1667 137.472 48.0533 137.47 47.912C137.469 47.7707 137.582 47.6549 137.724 47.6535C138.802 47.6425 139.786 47.5244 140.657 47.3348C140.976 47.2652 141.257 47.1908 141.497 47.1166L141.694 47.0525C141.732 47.0394 141.761 47.0288 141.78 47.0211Z" fill="#FF7946"/>
<path fill-rule="evenodd" clip-rule="evenodd" d="M148.524 42.1771L149.997 38.0961C149.997 38.0961 150.551 32.4044 148.976 30.1786C146.533 26.7239 141.989 27.3816 139.164 26.7265C136.339 26.0714 136.253 25.1584 135.175 25.4439C134.096 25.7295 130.212 29.2123 130.115 32.3675C130.03 35.142 131.573 41.9944 131.573 41.9944C131.573 41.9944 131.586 35.7571 131.979 34.0621C134.012 32.9049 141.793 31.9054 145.166 32.5093C145.166 32.5093 145.704 34.5662 146.047 36.0192C147.94 37.051 148.524 42.1771 148.524 42.1771Z" fill="#253368"/>
<path d="M144.527 52.5276C144.617 52.4801 144.728 52.514 144.775 52.6033C144.823 52.6927 144.789 52.8036 144.699 52.8511C141.677 54.459 139.16 54.5238 137.214 53.6604C136.948 53.5423 136.718 53.4154 136.523 53.288L136.43 53.2255C136.361 53.177 136.31 53.1378 136.279 53.1109C136.202 53.045 136.193 52.9293 136.259 52.8526C136.325 52.7758 136.441 52.7669 136.517 52.8328L136.554 52.8623C136.592 52.8916 136.649 52.9323 136.724 52.9814C136.902 53.0983 137.116 53.2156 137.363 53.3255C139.207 54.1437 141.605 54.0819 144.527 52.5276Z" fill="#DD936F"/>
<path d="M139.313 39.8306C139.514 39.8142 139.691 39.9645 139.707 40.1662C139.723 40.3545 139.593 40.521 139.411 40.5557L139.372 40.5611L137.605 40.7044C137.403 40.7207 137.227 40.5705 137.21 40.3687C137.195 40.1805 137.325 40.0139 137.506 39.9792L137.546 39.9739L139.313 39.8306Z" fill="#253368"/>
<path d="M138.347 40.8587C138.675 40.8249 139.013 40.8782 139.343 40.9858C139.499 41.0367 139.62 41.0883 139.694 41.1259C139.875 41.217 139.948 41.4374 139.856 41.6181C139.771 41.7867 139.574 41.8612 139.401 41.7963L139.316 41.758C139.268 41.7368 139.199 41.7099 139.116 41.6826C138.875 41.604 138.634 41.566 138.422 41.5878C138.201 41.6105 138.03 41.6958 137.899 41.8609C137.774 42.0197 137.543 42.0467 137.384 41.9213C137.226 41.7958 137.199 41.5654 137.324 41.4066C137.585 41.0767 137.939 40.9007 138.347 40.8587Z" fill="#253368"/>
<path d="M133.799 36.9808C134.565 36.8984 135.369 36.9975 136.158 37.2114C136.515 37.3083 136.79 37.4062 136.952 37.4747C137.2 37.5797 137.317 37.8663 137.212 38.1148C137.107 38.3633 136.82 38.4797 136.572 38.3747L136.476 38.3374C136.453 38.329 136.428 38.3196 136.399 38.3093C136.251 38.2567 136.084 38.2038 135.902 38.1543C135.221 37.9696 134.531 37.8846 133.903 37.9522C133.334 38.0134 132.852 38.1977 132.471 38.5212C132.265 38.6959 131.957 38.6708 131.782 38.4652C131.608 38.2595 131.633 37.9512 131.838 37.7766C132.38 37.3163 133.046 37.0617 133.799 36.9808Z" fill="#253368"/>
<path d="M140.404 49.2003C140.504 49.1908 140.594 49.2648 140.603 49.3656C140.612 49.4562 140.553 49.5377 140.467 49.5599L140.438 49.5651L139 49.7002C138.899 49.7097 138.81 49.6357 138.8 49.5349C138.792 49.4443 138.851 49.3628 138.936 49.3406L138.965 49.3354L140.404 49.2003Z" fill="#DD936F"/>
<path d="M148.734 38.9139C148.935 38.8939 149.115 39.0409 149.135 39.2422C149.154 39.4302 149.027 39.5991 148.846 39.6371L148.807 39.6432L145.915 39.9314C145.714 39.9514 145.534 39.8044 145.514 39.6031C145.495 39.4151 145.622 39.2462 145.803 39.2082L145.842 39.2021L148.734 38.9139Z" fill="#253368"/>
<path fill-rule="evenodd" clip-rule="evenodd" d="M145.608 39.0158L140.084 39.5357C139.698 39.5716 139.414 39.9129 139.454 40.2983C139.527 41.0174 139.676 42.1674 139.956 43.1372C140.286 44.2816 141.401 44.8963 142.591 44.8395C144.076 44.7688 145.405 44.6455 146.003 43.8143C146.917 42.5482 146.485 40.6458 146.367 39.6279C146.324 39.2542 145.982 38.9804 145.608 39.0158Z" fill="white"/>
<path d="M145.597 38.8942L140.073 39.4142C139.619 39.4563 139.286 39.8582 139.332 40.3107C139.437 41.3446 139.6 42.3459 139.839 43.1711C140.172 44.3282 141.297 45.0234 142.596 44.9614L142.867 44.9474C144.715 44.8432 145.584 44.6056 146.102 43.8857C146.468 43.3791 146.649 42.7522 146.687 42.0086C146.71 41.563 146.684 41.1294 146.615 40.5663L146.494 39.666C146.492 39.6481 146.49 39.6308 146.488 39.6138C146.437 39.1748 146.037 38.8526 145.597 38.8942ZM145.62 39.1373C145.928 39.1081 146.21 39.335 146.245 39.6418L146.267 39.8134L146.335 40.3064L146.373 40.5935C146.44 41.1448 146.465 41.5667 146.443 41.9962C146.407 42.6964 146.239 43.2789 145.904 43.7429C145.423 44.4108 144.541 44.6246 142.585 44.7176C141.393 44.7745 140.374 44.1448 140.073 43.1034C139.84 42.2952 139.678 41.3067 139.575 40.2861C139.543 39.9688 139.776 39.6869 140.095 39.6573L145.62 39.1373Z" fill="#253368"/>
<path fill-rule="evenodd" clip-rule="evenodd" d="M136.986 39.765L130.731 40.3536C130.586 41.2897 131.142 44.8027 132.286 45.4593C133.795 46.077 136.669 45.4777 137.048 44.6681C137.623 43.4392 137.668 41.195 137.566 40.24C137.535 39.9493 137.278 39.7379 136.986 39.765Z" fill="white"/>
<path d="M136.975 39.6435L130.72 40.2321C130.664 40.2373 130.619 40.2797 130.611 40.3349C130.399 41.6957 131.203 44.9787 132.225 45.5651C133.738 46.1855 136.727 45.6411 137.158 44.7198C137.657 43.655 137.832 41.5788 137.687 40.227C137.649 39.8698 137.333 39.6102 136.975 39.6435ZM136.997 39.8866C137.222 39.8657 137.421 40.0283 137.444 40.2528C137.585 41.5646 137.413 43.5995 136.937 44.6163C136.571 45.3974 133.724 45.916 132.332 45.3463L132.283 45.3149C131.439 44.7353 130.715 41.8507 130.834 40.5213L130.839 40.4656L136.997 39.8866Z" fill="#253368"/>
<path d="M146.167 38.6335C146.368 38.6093 146.551 38.7525 146.575 38.9535C146.598 39.141 146.474 39.3125 146.294 39.3542L146.255 39.3611L139.424 40.1851C139.223 40.2094 139.041 40.0661 139.016 39.8652C138.994 39.6777 139.117 39.5062 139.297 39.4644L139.336 39.4575L146.167 38.6335Z" fill="#253368"/>
<path d="M137.384 39.594C137.586 39.5778 137.762 39.7283 137.778 39.93C137.793 40.1183 137.663 40.2847 137.482 40.3192L137.442 40.3245L130.722 40.8619C130.521 40.878 130.344 40.7276 130.328 40.5258C130.313 40.3375 130.443 40.1711 130.624 40.1367L130.664 40.1313L137.384 39.594Z" fill="#253368"/>
<path fill-rule="evenodd" clip-rule="evenodd" d="M149.017 38.9649C149.624 38.1465 150.687 37.7995 151.57 38.5314C152.994 39.7101 152.514 44.8674 149.19 45.5277C147.893 45.5225 148.071 40.2418 149.017 38.9649Z" fill="#FFC999"/>
<path d="M150.491 39.2331C150.58 39.1851 150.691 39.2185 150.739 39.3076C150.787 39.3968 150.753 39.5079 150.664 39.5558L150.623 39.58C150.597 39.5959 150.563 39.6174 150.524 39.6444C150.415 39.7202 150.305 39.8097 150.203 39.9117C149.807 40.3086 149.644 40.7643 149.828 41.2853C149.875 41.4191 149.935 41.4798 150.074 41.5438L150.166 41.5833C150.466 41.7066 150.604 41.8267 150.67 42.1263C150.773 42.5919 150.585 42.9716 150.222 43.2562C150.053 43.3892 149.885 43.4741 149.767 43.5171C149.672 43.5518 149.566 43.5028 149.532 43.4078C149.497 43.3127 149.546 43.2075 149.641 43.1729L149.694 43.1505C149.71 43.1434 149.728 43.1347 149.748 43.1246C149.833 43.0818 149.918 43.0295 149.996 42.9679C150.258 42.7624 150.381 42.5145 150.313 42.2054C150.281 42.0621 150.235 42.0126 150.074 41.942L149.981 41.9033C149.721 41.7941 149.574 41.6703 149.482 41.4068C149.245 40.7342 149.457 40.1402 149.944 39.6528C150.063 39.534 150.189 39.4308 150.316 39.3431C150.393 39.2899 150.453 39.2531 150.491 39.2331Z" fill="#DD936F"/>
<path d="M135.153 41.3613C135.858 41.2951 136.473 41.8793 136.546 42.649C136.559 42.7897 136.456 42.9145 136.315 42.9277C136.174 42.941 136.05 42.8376 136.036 42.6969C135.989 42.1944 135.608 41.8327 135.201 41.8709C134.795 41.909 134.488 42.3357 134.535 42.8385C134.548 42.9793 134.445 43.104 134.304 43.1171C134.163 43.1302 134.039 43.0268 134.025 42.8861C133.954 42.1163 134.449 41.4275 135.153 41.3613Z" fill="#253368"/>
<path d="M142.96 40.6269C143.664 40.5607 144.28 41.1449 144.353 41.9146C144.366 42.0553 144.262 42.1801 144.122 42.1933C143.981 42.2066 143.856 42.1033 143.843 41.9626C143.796 41.46 143.414 41.0983 143.008 41.1365C142.602 41.1747 142.295 41.6013 142.342 42.1042C142.355 42.2449 142.251 42.3696 142.111 42.3827C141.97 42.3959 141.845 42.2924 141.832 42.1517C141.76 41.3819 142.256 40.6931 142.96 40.6269Z" fill="#253368"/>
<path fill-rule="evenodd" clip-rule="evenodd" d="M161.97 100.769C161.97 100.769 162.013 88.0588 162.739 82.3303C163.561 75.8402 167.097 63.2782 164.771 62.2869C162.444 61.295 152.434 57.3772 152.434 57.3772C152.434 57.3772 148.011 57.913 143.04 59.0057C139.105 59.8707 139.635 57.391 134.862 58.2119C132.841 58.5594 123.223 61.5412 122.7 63.4251C119.182 76.0884 130.006 101.277 130.006 101.277C130.006 101.277 128.447 105.178 130.479 107.47C131.623 108.642 131.463 108.11 137.757 108.085C144.921 108.056 159.876 107.592 160.956 107.2C164.429 105.94 161.97 100.769 161.97 100.769Z" fill="#597EF7"/>
<path fill-rule="evenodd" clip-rule="evenodd" d="M136.618 56.2756L141.719 59.1053L136.611 64.447L134.58 58.352L136.618 56.2756Z" fill="#597EF7"/>
<path fill-rule="evenodd" clip-rule="evenodd" d="M141.601 59.231L146.162 65.5323L152.753 57.6834L149.786 54.1494L141.601 59.231Z" fill="#597EF7"/>
<path d="M141.296 59.7356C141.436 59.7519 141.537 59.8789 141.521 60.0193L141.505 60.1706L141.47 60.5241L141.461 60.6273C141.416 61.134 141.371 61.7365 141.329 62.4329L141.298 62.9629C141.068 67.1595 141.057 72.4052 141.398 78.6123C141.89 87.5879 143.065 97.4095 145.073 107.978C145.099 108.116 145.008 108.25 144.869 108.277C144.73 108.303 144.596 108.212 144.57 108.073C142.558 97.4824 141.38 87.6383 140.887 78.6403L140.845 77.8507C140.533 71.7064 140.569 66.5276 140.818 62.402L140.857 61.7963C140.883 61.4095 140.91 61.0567 140.938 60.7383L140.979 60.2859L141.012 59.9602C141.027 59.8315 141.135 59.7363 141.261 59.7339L141.296 59.7356Z" fill="#253368"/>
<path d="M156.466 71.884L150.881 72.1043C149.454 72.1591 147.962 72.2155 146.422 72.2724C146.28 72.2777 146.169 72.3986 146.176 72.5412C146.274 74.4676 146.432 76.102 146.632 77.4658C146.748 78.2534 146.871 78.9075 146.996 79.4374L147.025 79.5574C147.064 79.7192 147.101 79.8591 147.136 79.978L147.193 80.1648C147.2 80.1846 147.205 80.2003 147.209 80.2118C147.227 80.2597 147.258 80.3012 147.299 80.3312L152.077 83.8068C152.168 83.873 152.292 83.8719 152.382 83.8041L156.875 80.4124C156.942 80.3624 156.98 80.2834 156.977 80.2004L156.732 72.1319C156.728 71.9896 156.608 71.8782 156.466 71.884ZM156.228 72.4059L156.461 80.0832L152.225 83.2812L147.666 79.9654L147.646 79.8995L147.607 79.7655C147.581 79.6694 147.552 79.5598 147.522 79.4361C147.391 78.9018 147.261 78.2241 147.138 77.3914L147.109 77.1872C146.945 76.023 146.812 74.6635 146.719 73.0959L146.701 72.774L150.901 72.6157L156.228 72.4059Z" fill="#253368"/>
<path fill-rule="evenodd" clip-rule="evenodd" d="M141.698 65.2212C141.748 65.6742 142.095 66.0079 142.472 65.9659C142.85 65.9244 143.116 65.5232 143.065 65.0703C143.015 64.6168 142.668 64.2836 142.291 64.3256C141.913 64.367 141.648 64.7683 141.698 65.2212Z" fill="white"/>
<path fill-rule="evenodd" clip-rule="evenodd" d="M141.902 74.4673C141.952 74.9202 142.298 75.2539 142.676 75.2119C143.054 75.1705 143.319 74.7692 143.269 74.3158C143.219 73.8628 142.872 73.5297 142.495 73.5711C142.117 73.6131 141.851 74.0143 141.902 74.4673Z" fill="white"/>
<path fill-rule="evenodd" clip-rule="evenodd" d="M142.246 83.0393C142.296 83.4922 142.642 83.8259 143.02 83.7839C143.397 83.7425 143.663 83.3412 143.613 82.8878C143.563 82.4349 143.216 82.1017 142.838 82.1431C142.461 82.1851 142.196 82.5863 142.246 83.0393Z" fill="white"/>
<path fill-rule="evenodd" clip-rule="evenodd" d="M143.027 92.3287C143.077 92.7816 143.423 93.1153 143.801 93.0733C144.178 93.0319 144.444 92.6306 144.394 92.1777C144.343 91.7242 143.997 91.391 143.619 91.433C143.242 91.4745 142.976 91.8757 143.027 92.3287Z" fill="white"/>
<path fill-rule="evenodd" clip-rule="evenodd" d="M144.495 102.655C144.545 103.108 144.891 103.442 145.269 103.4C145.647 103.359 145.913 102.957 145.862 102.504C145.812 102.051 145.465 101.718 145.088 101.76C144.71 101.801 144.445 102.202 144.495 102.655Z" fill="white"/>
<path d="M152.463 57.2534C152.55 57.1419 152.711 57.122 152.822 57.2089C152.923 57.2878 152.949 57.4279 152.888 57.5365L152.867 57.568L147.405 64.5755C147.321 64.6838 147.168 64.7047 147.058 64.6291L147.03 64.606L141.499 59.4907C141.395 59.3947 141.389 59.2328 141.485 59.129C141.572 59.0347 141.714 59.0209 141.817 59.0913L141.847 59.1149L147.173 64.041L152.463 57.2534Z" fill="#253368"/>
<path d="M134.3 58.3054C134.421 58.2606 134.555 58.3139 134.614 58.4253L134.628 58.457L137.007 64.9124L141.297 59.1155C141.373 59.0122 141.512 58.983 141.622 59.0417L141.654 59.062C141.758 59.1384 141.787 59.2778 141.728 59.3878L141.708 59.4199L137.137 65.5983C137.023 65.7517 136.792 65.7293 136.706 65.5685L136.691 65.5345L134.148 58.634C134.099 58.5014 134.167 58.3543 134.3 58.3054Z" fill="#253368"/>
<path d="M125.546 72.0218C125.687 72.0064 125.813 72.1078 125.829 72.2483L126.004 73.8363C127.397 86.2821 128.497 92.6486 131.136 101.777C131.152 101.834 131.148 101.896 131.124 101.951C130.024 104.451 130.176 106.11 131.062 107.127C131.214 107.301 131.376 107.44 131.537 107.547L131.611 107.594C131.634 107.607 131.654 107.619 131.672 107.628L131.699 107.643L132.018 107.663C133.616 107.759 135.344 107.819 137.184 107.844L137.611 107.849C141.364 107.89 145.371 107.792 149.361 107.602L150.109 107.566C151.164 107.512 152.151 107.456 153.053 107.399L153.887 107.344L154.889 107.273C155.03 107.262 155.153 107.368 155.164 107.508C155.175 107.649 155.07 107.772 154.929 107.783L154.065 107.845L153.618 107.875C152.574 107.944 151.403 108.013 150.135 108.077C145.89 108.291 141.605 108.404 137.605 108.361C135.454 108.338 133.449 108.269 131.618 108.15C131.59 108.149 131.562 108.142 131.536 108.131C131.311 108.037 130.992 107.826 130.677 107.464C129.687 106.329 129.493 104.55 130.535 102.028L130.618 101.83L130.403 101.079C127.847 92.0763 126.781 85.5735 125.364 72.708L125.32 72.3041C125.305 72.1636 125.406 72.0372 125.546 72.0218Z" fill="#253368"/>
<path fill-rule="evenodd" clip-rule="evenodd" d="M163.895 127.139L149.209 132.555C149.209 132.555 145.936 133.308 143.372 132.377C139.253 130.881 132.509 127.193 129.729 122.948C129.436 116.819 132.012 109.974 132.012 109.974L132.431 106.287C132.431 106.287 145.697 107.786 161.756 106.384C161.864 108.209 162.284 110.437 162.284 110.437C162.284 110.437 165.224 120.934 163.895 127.139Z" fill="#ADC6FF"/>
<path d="M132.494 110L132.523 110.003C134.682 110.373 137.031 110.63 139.543 110.784C144.973 111.117 150.791 110.959 156.429 110.492L157.036 110.441C157.834 110.371 158.581 110.299 159.272 110.226L159.779 110.171C160.126 110.133 160.432 110.098 160.694 110.066L161.013 110.026C161.113 110.013 161.205 110.083 161.218 110.184C161.232 110.284 161.161 110.376 161.061 110.389L160.738 110.43C160.475 110.462 160.168 110.497 159.819 110.536L159.31 110.59C158.444 110.682 157.49 110.772 156.459 110.857C150.805 111.325 144.971 111.484 139.521 111.15C136.996 110.995 134.634 110.737 132.461 110.364C132.362 110.347 132.295 110.252 132.312 110.153C132.327 110.063 132.405 110 132.494 110Z" fill="#597EF7"/>
<path d="M132.451 106.177C134.307 106.376 136.276 106.53 138.344 106.64C144.262 106.956 150.575 106.91 156.647 106.637L157.404 106.601C158.368 106.555 159.257 106.505 160.059 106.456L160.922 106.4L161.671 106.346C161.772 106.338 161.86 106.413 161.868 106.514C161.876 106.615 161.801 106.703 161.7 106.711L161.069 106.757L160.553 106.791C159.631 106.851 158.581 106.911 157.422 106.967C151.108 107.273 144.503 107.336 138.325 107.006C136.25 106.895 134.274 106.741 132.412 106.541C132.311 106.53 132.238 106.44 132.249 106.339C132.259 106.249 132.333 106.181 132.421 106.176L132.451 106.177Z" fill="#597EF7"/>
<path d="M146.02 107.103C146.121 107.103 146.202 107.185 146.202 107.287L146.201 108.6C146.203 109.605 146.211 110.796 146.225 112.125L146.231 112.599C146.267 115.551 146.332 118.473 146.435 121.229L146.459 121.862C146.617 125.854 146.845 129.199 147.152 131.683C147.164 131.783 147.093 131.875 146.993 131.887C146.892 131.899 146.801 131.828 146.788 131.728L146.74 131.326C146.464 128.945 146.255 125.845 146.106 122.191L146.093 121.876C145.985 119.144 145.914 116.234 145.873 113.285L145.854 111.665C145.842 110.521 145.837 109.488 145.835 108.601L145.836 107.285C145.836 107.184 145.918 107.102 146.02 107.103Z" fill="#597EF7"/>
<path fill-rule="evenodd" clip-rule="evenodd" d="M143 109.175C142.995 109.631 143.279 110.003 143.634 110.007C143.988 110.01 144.279 109.644 144.283 109.188C144.288 108.732 144.004 108.36 143.65 108.356C143.295 108.353 143.004 108.719 143 109.175Z" fill="white"/>
<path d="M142.161 111.09C142.262 111.094 142.341 111.179 142.337 111.28L142.316 111.999C142.312 112.143 142.309 112.296 142.305 112.458C142.255 114.775 142.257 117.257 142.348 119.584C142.395 120.777 142.463 121.875 142.556 122.855C142.771 125.123 144.094 126.34 146.314 126.628C146.414 126.641 146.485 126.733 146.472 126.833C146.459 126.934 146.367 127.004 146.267 126.991C143.886 126.683 142.423 125.337 142.191 122.89C142.098 121.902 142.029 120.798 141.982 119.599C141.9 117.496 141.89 115.27 141.925 113.151L141.942 112.29L141.961 111.581C141.966 111.429 141.969 111.322 141.971 111.267C141.975 111.166 142.06 111.087 142.161 111.09Z" fill="#597EF7"/>
<path fill-rule="evenodd" clip-rule="evenodd" d="M169.177 107.207C172.578 106.501 174.838 103.262 174.325 99.8259L169.677 68.701C168.993 64.1235 164.603 61.0614 160.07 62.0021C155.592 62.9315 152.784 67.3985 153.889 71.8373L161.489 102.376C162.339 105.789 165.733 107.922 169.177 107.207Z" fill="#FFC999"/>
<path fill-rule="evenodd" clip-rule="evenodd" d="M158.368 91.6854L173.417 88.5619L169.596 68.3465C168.759 63.922 164.457 61.0432 160.047 61.9583C155.638 62.8734 152.836 67.2267 153.83 71.6189L158.368 91.6854Z" fill="#597EF7"/>
<path fill-rule="evenodd" clip-rule="evenodd" d="M136.871 105.123L115.706 105.261C115.113 105.265 114.585 104.884 114.401 104.319L107.042 81.7317C106.756 80.8545 107.407 79.9522 108.33 79.9461L129.495 79.8084C130.089 79.8048 130.616 80.1851 130.8 80.7496L138.159 103.337C138.444 104.215 137.794 105.117 136.871 105.123Z" fill="#4E5C93"/>
<path fill-rule="evenodd" clip-rule="evenodd" d="M135.334 105.133L114.169 105.271C113.576 105.275 113.048 104.894 112.864 104.329L105.506 81.7417C105.22 80.8645 105.87 79.9622 106.793 79.9561L127.958 79.8184C128.552 79.8148 129.079 80.1951 129.263 80.7596L136.622 103.347C136.907 104.225 136.257 105.127 135.334 105.133Z" fill="#253368"/>
<path fill-rule="evenodd" clip-rule="evenodd" d="M121.407 108.394C121.407 108.394 128.247 108.989 131.435 106.881C135.997 103.866 131.818 100.244 131.818 100.244C131.818 100.244 130.219 98.8355 125.927 97.1369C123.543 96.1936 117.299 93.9525 117.449 95.4408C117.626 97.2039 121.713 98.6216 121.33 99.8524C120.935 101.115 119.818 100.839 117.07 101.046C115.354 101.176 113.61 100.628 112.176 101.016C109.371 101.773 111.746 107.033 121.407 108.394Z" fill="#FFC999"/>
<path d="M112.245 102.373C112.283 102.28 112.388 102.236 112.481 102.273C114.94 103.266 117.204 103.407 119.078 103.053C119.233 103.024 119.372 102.993 119.495 102.962L119.584 102.939C119.669 102.916 119.726 102.898 119.754 102.889C119.848 102.856 119.951 102.907 119.984 103.001C120.016 103.096 119.966 103.199 119.871 103.231L119.815 103.249C119.78 103.26 119.734 103.273 119.678 103.288C119.526 103.329 119.347 103.37 119.145 103.408C117.207 103.774 114.873 103.629 112.345 102.608C112.253 102.571 112.208 102.466 112.245 102.373Z" fill="#DD936F"/>
<path d="M112.861 104.478C112.905 104.388 113.013 104.351 113.103 104.395L113.195 104.437L113.323 104.493C113.369 104.512 113.418 104.532 113.471 104.554C113.772 104.674 114.116 104.796 114.497 104.909C116.004 105.357 117.609 105.55 119.204 105.346C119.303 105.334 119.393 105.404 119.406 105.503C119.419 105.602 119.349 105.693 119.25 105.705C117.6 105.916 115.945 105.717 114.394 105.256C114.002 105.139 113.648 105.014 113.336 104.889L113.182 104.826L113.048 104.768C112.998 104.745 112.963 104.729 112.945 104.72C112.855 104.676 112.817 104.568 112.861 104.478Z" fill="#DD936F"/>
<path d="M115.645 106.522L115.677 106.527C117.719 107.062 119.499 107.118 120.922 106.894C121.053 106.873 121.171 106.852 121.275 106.83L121.424 106.796C121.455 106.788 121.477 106.782 121.491 106.778C121.587 106.75 121.687 106.805 121.715 106.901C121.743 106.997 121.688 107.098 121.592 107.126L121.513 107.147C121.489 107.152 121.461 107.159 121.43 107.166C121.301 107.195 121.151 107.224 120.978 107.252C119.508 107.483 117.678 107.425 115.586 106.877C115.489 106.852 115.431 106.753 115.457 106.656C115.479 106.57 115.56 106.515 115.645 106.522Z" fill="#DD936F"/>
<path fill-rule="evenodd" clip-rule="evenodd" d="M122.406 104.085C122.58 106.235 124.39 107.882 126.547 107.851L167.594 107.267C171.446 107.212 174.451 103.916 174.151 100.075C173.85 96.2414 170.379 93.4547 166.571 93.99L125.919 99.7006C123.772 100.002 122.232 101.924 122.406 104.085Z" fill="#FFC999"/>
<path d="M154.698 71.3227C154.826 71.2997 154.948 71.3755 154.987 71.4954L154.996 71.5292L158.573 91.3811L173.365 88.3115C173.492 88.2852 173.616 88.3577 173.658 88.4766L173.668 88.5101C173.694 88.6369 173.621 88.7613 173.503 88.8033L173.469 88.8126L158.42 91.9361C158.291 91.963 158.165 91.8873 158.125 91.7653L158.116 91.731L154.492 71.6199C154.467 71.4809 154.559 71.3478 154.698 71.3227Z" fill="#253368"/>
<path d="M156.769 65.4682C158.398 63.2965 160.489 62.0768 163.068 62.3314C163.209 62.3453 163.312 62.4706 163.298 62.6112C163.284 62.7519 163.159 62.8546 163.018 62.8407C160.643 62.6062 158.71 63.7336 157.179 65.7753C156.686 66.4315 156.273 67.136 155.937 67.8405C155.843 68.0376 155.761 68.2232 155.69 68.3944L155.639 68.52C155.59 68.6416 155.559 68.7273 155.544 68.7712C155.498 68.905 155.353 68.9765 155.219 68.931C155.085 68.8854 155.014 68.74 155.059 68.6062L155.106 68.4771C155.122 68.4351 155.141 68.386 155.163 68.3303C155.249 68.1156 155.353 67.8769 155.475 67.6201C155.825 66.8869 156.255 66.1537 156.769 65.4682Z" fill="#253368"/>
<path fill-rule="evenodd" clip-rule="evenodd" d="M105.725 70.2599C105.725 70.2599 105.704 67.4762 104.648 66.0903C103.139 64.1112 101.673 62.2436 101.652 59.4738C101.632 56.7039 98.959 59.0275 100.472 64.2514C96.4748 63.3511 92.2765 61.6632 91.0205 58.9579C90.5615 57.9696 89.4857 58.1303 89.4601 59.0822C89.434 60.0347 89.8639 60.9268 89.8639 60.9268C89.8639 60.9268 89.0885 61.7006 89.6172 62.7749C88.588 64.3967 90.2871 65.426 90.2871 65.426C90.2871 65.426 89.2502 66.0089 91.3501 68.421C93.5263 70.9201 98.9462 73.2375 98.9462 73.2375L103.202 81.6259L110.315 77.967L105.725 70.2599Z" fill="#FFC999"/>
<path d="M100.323 64.1822C100.361 64.0996 100.459 64.0637 100.542 64.102C100.625 64.1403 100.66 64.2382 100.622 64.3208L100.577 64.4253C100.567 64.4492 100.556 64.4761 100.545 64.5061C100.485 64.6568 100.425 64.8258 100.37 65.0087C100.192 65.5926 100.095 66.1793 100.12 66.7219C100.152 67.4051 100.376 67.9615 100.829 68.3585C100.897 68.4185 100.904 68.5226 100.844 68.5911C100.784 68.6596 100.68 68.6664 100.612 68.6065C100.084 68.1445 99.8263 67.5035 99.7909 66.7371C99.7638 66.1518 99.8667 65.5297 100.054 64.9128C100.113 64.721 100.175 64.5437 100.238 64.385L100.273 64.2982C100.294 64.2466 100.311 64.2075 100.323 64.1822Z" fill="#DD936F"/>
<path d="M91.1082 64.1924C91.4134 63.9435 91.6932 63.8542 91.93 64.0097C92.2078 64.1918 92.2786 64.5994 92.2252 65.1722C92.2064 65.3735 92.1722 65.5869 92.1269 65.8041C92.1104 65.8833 92.0932 65.9598 92.0756 66.0324L92.04 66.1736L92.0341 66.194L92.054 66.2214C92.0932 66.2754 92.1377 66.3342 92.1872 66.3968L92.2383 66.4607C92.44 66.7091 92.6713 66.9577 92.9283 67.1893C93.6591 67.8478 94.4455 68.2383 95.2534 68.2337C97.9182 68.2183 100.522 68.8569 101.015 70.0335C101.05 70.1174 101.01 70.214 100.926 70.2491C100.842 70.2843 100.746 70.2447 100.711 70.1608C100.294 69.1649 97.7812 68.5487 95.2553 68.5633C94.3515 68.5685 93.4938 68.1425 92.7077 67.4341C92.4371 67.1902 92.1942 66.9293 91.9824 66.6683C91.9082 66.5768 91.843 66.4917 91.7873 66.4151L91.7176 66.3159C91.6908 66.2754 91.6832 66.2252 91.6968 66.1786L91.73 66.0561C91.7553 65.958 91.7806 65.8504 91.8043 65.7369C91.8472 65.5309 91.8795 65.3293 91.897 65.1416C91.9395 64.6859 91.8854 64.3745 91.7492 64.2853C91.6697 64.2331 91.5221 64.2802 91.3165 64.4478C91.1873 64.5532 91.0475 64.6969 90.9028 64.8689C90.7841 65.01 90.669 65.1618 90.5622 65.3136L90.5042 65.3973C90.4695 65.448 90.4432 65.488 90.4265 65.5143C90.3778 65.5911 90.2759 65.6139 90.1991 65.5651C90.1222 65.5163 90.0995 65.4145 90.1482 65.3377L90.2056 65.2503C90.2299 65.2142 90.259 65.1717 90.2926 65.1239C90.4045 64.9649 90.5252 64.8058 90.6505 64.6568C90.8075 64.4702 90.9608 64.3125 91.1082 64.1924Z" fill="#DD936F"/>
<path d="M90.5363 61.5373C90.9444 61.2375 91.314 61.1853 91.5618 61.5104C91.7737 61.7885 91.7921 62.1808 91.6702 62.6545C91.6105 62.8864 91.5187 63.1308 91.4033 63.3803C91.3298 63.5391 91.2513 63.6906 91.1727 63.8298L91.0995 63.9558C91.0862 63.9779 91.075 63.9961 91.0663 64.0098C91.0175 64.0867 90.9157 64.1094 90.8388 64.0606C90.762 64.0119 90.7392 63.91 90.788 63.8332L90.8375 63.7514C90.8517 63.7272 90.8679 63.6992 90.8857 63.6677C90.9601 63.5359 91.0347 63.3922 91.1041 63.242C91.2117 63.0092 91.2969 62.7828 91.351 62.5724C91.4503 62.1867 91.4363 61.8895 91.2997 61.7102C91.193 61.5702 91.0137 61.5956 90.7314 61.8029C90.5876 61.9085 90.4324 62.0535 90.2716 62.2276C90.1422 62.3679 90.0167 62.5188 89.9005 62.6697L89.7877 62.8201C89.7735 62.8396 89.7619 62.8561 89.7528 62.8691C89.7009 62.9438 89.5982 62.9624 89.5234 62.9104C89.4487 62.8585 89.4302 62.7558 89.4821 62.6811L89.5728 62.5562C89.5927 62.5295 89.615 62.5002 89.6394 62.4685C89.7612 62.3104 89.8927 62.1522 90.0294 62.0041C90.2033 61.8157 90.3732 61.657 90.5363 61.5373Z" fill="#DD936F"/>
<path d="M92.0712 65.1319C92.1371 65.0691 92.2414 65.0717 92.3042 65.1376C93.0702 65.942 93.7784 66.4161 94.9083 66.8761C94.9926 66.9104 95.0331 67.0065 94.9988 67.0908C94.9645 67.1751 94.8683 67.2157 94.784 67.1813C93.6117 66.7041 92.8644 66.2038 92.0655 65.3649C92.0027 65.299 92.0053 65.1947 92.0712 65.1319Z" fill="#DD936F"/>
<path d="M91.4145 63.5479C91.4696 63.4755 91.573 63.4615 91.6454 63.5166L91.7302 63.5789L91.7627 63.6022C91.8597 63.6715 91.972 63.7489 92.0982 63.8323C92.4593 64.0709 92.8583 64.3095 93.2836 64.5322C93.9367 64.8741 94.5911 65.1462 95.2271 65.3227C95.3148 65.347 95.3661 65.4378 95.3418 65.5255C95.3175 65.6132 95.2266 65.6646 95.1389 65.6403C94.4784 65.457 93.803 65.1762 93.1308 64.8242C92.6949 64.596 92.2864 64.3517 91.9165 64.1072L91.7328 63.9835L91.4822 63.806C91.467 63.7948 91.4549 63.7857 91.4459 63.7789C91.3735 63.7238 91.3594 63.6204 91.4145 63.5479Z" fill="#DD936F"/>
<path d="M91.5428 61.8771C91.5985 61.8052 91.702 61.792 91.774 61.8477L91.9182 61.9554L92.0689 62.0642C92.1485 62.1208 92.2343 62.1807 92.326 62.2433C92.7626 62.5415 93.2406 62.8398 93.7441 63.118C94.365 63.4611 94.9812 63.7492 95.5782 63.9644C95.6638 63.9952 95.7082 64.0896 95.6774 64.1753C95.6465 64.2609 95.5521 64.3053 95.4665 64.2744C94.8517 64.0529 94.2199 63.7575 93.5847 63.4065C93.0715 63.1229 92.5848 62.8192 92.1401 62.5154L91.9611 62.3915C91.9041 62.3516 91.8498 62.3129 91.7984 62.2758L91.6161 62.1418C91.5977 62.1279 91.583 62.1167 91.5722 62.1083C91.5003 62.0526 91.4871 61.9491 91.5428 61.8771Z" fill="#DD936F"/>
<path d="M96.1228 63.364C96.2073 63.3979 96.2483 63.4938 96.2143 63.5783L96.1195 63.8252C96.101 63.875 96.0815 63.9276 96.0614 63.983C95.9461 64.2999 95.8308 64.6406 95.7233 64.9918C95.5998 65.3947 95.4947 65.7856 95.4135 66.1543C95.1882 67.178 95.1682 67.943 95.3948 68.3122C95.4424 68.3897 95.4181 68.4912 95.3405 68.5388C95.2629 68.5864 95.1615 68.5622 95.1139 68.4846C94.8267 68.0167 94.8483 67.1888 95.0916 66.0835C95.1749 65.7054 95.2823 65.3062 95.4081 64.8952C95.4956 64.6096 95.588 64.3311 95.6814 64.0663L95.7818 63.7879L95.9085 63.4555C95.9424 63.371 96.0384 63.33 96.1228 63.364Z" fill="#DD936F"/>
<path d="M90.4275 59.8779C90.6384 59.679 90.8368 59.5895 91.0283 59.673C91.3438 59.8108 91.4991 60.1082 91.5328 60.4987C91.5501 60.6981 91.5347 60.908 91.4989 61.1131C91.4835 61.201 91.4679 61.2686 91.457 61.3083C91.433 61.3961 91.3423 61.4478 91.2545 61.4237C91.1668 61.3996 91.1151 61.309 91.1392 61.2212L91.1512 61.1722C91.1581 61.1417 91.1661 61.1025 91.1742 61.0563C91.2056 60.877 91.2189 60.6942 91.2045 60.5271C91.18 60.2446 91.0815 60.0559 90.8965 59.9751C90.8651 59.9614 90.7774 60.001 90.6537 60.1176C90.5616 60.2045 90.4612 60.3232 90.3571 60.4651C90.2703 60.5835 90.186 60.7109 90.1077 60.8384L90.021 60.9841C90.0161 60.9927 90.0118 61.0003 90.0082 61.0069C89.964 61.0865 89.8637 61.1153 89.7841 61.0711C89.7045 61.027 89.6758 60.9267 89.7199 60.8471L89.7736 60.754C89.7891 60.7278 89.8069 60.6983 89.8268 60.6659C89.9095 60.5313 89.9987 60.3965 90.0914 60.2702C90.2063 60.1135 90.3188 59.9804 90.4275 59.8779Z" fill="#DD936F"/>
<path fill-rule="evenodd" clip-rule="evenodd" d="M107.924 131.224C108.099 127.506 110.741 124.366 114.375 123.556L151.085 115.383C156.481 113.495 162.363 116.477 164.03 121.945C165.696 127.413 162.478 133.169 156.948 134.613L117.236 139.796C112.141 140.461 107.683 136.358 107.924 131.224Z" fill="#ADC6FF"/>
</g>
</svg>
